<svg width="600" height="500" viewBox="0 0 600 500" fill="none" xmlns="http://www.w3.org/2000/svg">
<path d="M495.629 76.6063C497.04 73.3003 498.967 68.9443 501.803 67.0623C508.203 62.8133 514.314 72.4493 518.374 75.9513C519.71 76.1853 520.827 76.3803 521.724 76.5373C523.369 76.3793 523.54 76.2653 524.834 75.2273C534.433 64.7963 543.247 67.0343 542.07 82.0933L542.391 84.1863C552.24 91.2223 568.692 102.981 570.923 115.665C571.673 119.93 570.948 122.684 572.561 127.298C575.819 136.615 590.316 147.336 582.19 156.85C578.591 161.064 574.946 165.266 570.6 168.792C567.419 172.133 564.179 172.505 562.867 175.596C560.038 180.871 558.439 182.984 552.537 184.314C538.519 187.428 535.759 178.512 528.719 169.311C524.205 166.889 523.8 166.554 518.86 165.011C494.843 164.4 494.312 163.285 476.581 179.991C475.648 180.879 474.736 181.79 473.847 182.723C473.563 183.017 473.681 182.919 473.44 183.076C471.827 186.118 471.409 187.573 471.215 191.074C471.799 206.313 471.175 219.736 462.749 233.033C461.608 235.636 459.46 239.336 459.601 241.917C460.32 243.165 460.76 243.858 461.625 245.008C475.192 261.399 492.101 272.717 505.34 288.536C512.938 297.614 509.672 311.903 506.107 321.561C502.576 333.187 501.414 344.16 491.139 352.354C485.752 357.002 474.126 359.691 468.798 354.096C469.873 351.916 470.161 352.158 469.985 350.034C468.574 348.402 467.777 347.593 467.173 345.473C465.948 340.633 469.768 339.232 469.579 332.194C469.996 325.816 473.773 319.38 478.498 315.216C480.134 310.948 480.317 308.645 480.908 304.179C480.238 301.599 479.103 301.904 476.906 301.584C466.237 299.333 431.481 287.476 422.829 282.297C418.46 279.913 415.334 276.809 411.126 277.791C408.503 280.349 408.679 284.431 408.454 288.024C412.602 299.987 418.143 311.811 422.653 323.656C428.894 340.045 435.047 355.857 442.873 371.589C445.519 376.906 448.108 383.341 451.126 388.38C454.567 394.113 458.844 399.3 463.816 403.768C467.149 403.873 477.954 403.732 480.183 404.201C486.416 406.204 490.611 411.172 493.692 416.81C494.473 422.11 495.931 427.018 492.192 431.369C488.278 432.275 485.863 432.25 481.882 432.377L460.285 432.365C453.954 432.596 449.122 432.652 442.885 431.534C439.673 427.921 438.292 424.924 436.042 420.658C429.4 408.688 426.946 405.84 414.483 401.048C413.867 399.531 413.446 397.94 412.989 396.369C407.028 375.867 392.888 359.612 382.068 341.603C371.43 327.353 361.411 310.871 350.457 296.149C348.551 294.264 346.659 292.364 344.781 290.451C343.266 292.244 340.916 294.831 339.8 296.779C337.694 297.723 333.699 299.427 331.407 299.774C317.847 304.539 308.444 303.206 295.775 305.05C295.11 309.425 293.739 316.679 292.35 320.86C287.015 342.164 278.615 354.427 260.558 366.961C252.965 372.231 244.756 377.544 251.566 387.474C256.067 394.039 265.549 403.962 272.387 407.998C280.627 407.986 291.204 405.299 297.549 411.696C301.48 415.659 305.566 425.214 303.093 430.665C298.878 431.688 289.358 431.009 284.731 430.73C276.757 431.007 267.224 431.154 259.288 430.567C249.958 425.109 227.162 402.537 218.209 393.814C215.233 390.915 209.22 384.613 208.036 380.651C205.438 371.957 218.431 364.857 221.732 356.925C224.874 349.373 224.761 348.394 224.861 340.713C224.393 336.964 224.666 330.014 219.866 330.215C216.959 331.75 210.308 339.174 206.221 342.288C196.172 352.427 180.435 363.546 166.209 366.391L165.744 366.576C144.834 374.732 131.254 362.864 119.357 389.145L118.754 390.488C118.135 394.74 115.519 399.548 114.593 404.918C120.591 407.432 128.813 410.385 131.525 416.889C132.997 420.418 134.623 429.74 131.711 432.82C130.128 433.261 129.969 433.141 128.309 432.767C126.551 431.075 126.743 430.647 124.761 430.519C122.208 432.509 121.498 433.773 118.087 433.356C110.714 432.448 98.4417 434.489 91.9887 432.785C77.4447 428.945 86.2208 400.544 88.8738 391.686C92.8638 379.992 95.4587 367.895 98.7987 355.868C101.776 345.15 110.933 346.18 120.763 340.731C138.239 331.043 139.862 320.931 145.471 303.865C145.509 301.75 145.817 298.736 144.774 297.015C142.597 297.169 140.469 300.1 138.834 301.885C138.632 302.344 137.742 303.612 137.377 304.036C122.568 320.956 101.49 337.495 78.5187 340.176C46.2257 343.945 18.8957 322.668 15.3767 290.027C13.0887 265.873 21.1737 241.972 40.9527 226.701C46.3417 222.541 55.5707 221.565 59.4707 228.366C66.0967 239.921 51.0948 247.611 45.3518 255.469C35.6728 268.315 34.0517 287.619 42.5227 301.481C46.5437 308.06 54.0587 314.322 61.8747 315.687C101.205 322.559 125.354 278.039 147.31 253.061C158.41 240.264 170.41 229.142 184.515 220.283C211.346 203.432 241.427 200.498 270.264 187.588C286.529 180.268 301.931 171.163 316.187 160.441C323.228 155.06 329.762 148.593 337.217 143.902L344.775 136.068C345.442 135.03 346.145 134.015 346.884 133.027C365.917 107.594 375.359 113.27 403.21 105.565C411.575 103.251 426.84 95.3243 435.414 91.3653C455.768 81.9663 473.882 79.6833 495.629 76.6063Z" fill="url(#paint0_linear_5_208)"/>
<path d="M337.217 143.902C337.107 145.861 335.397 148.591 334.09 149.865C330.161 151.632 318.412 164.717 314.475 168.183C311.221 171.049 310.713 168.5 307.03 172.87C298.041 177.962 289.529 183.536 280.282 188.211C262.426 197.237 242.506 203.698 223.127 208.71C223.094 210.365 222.907 214.787 223.117 216.211C221.632 219.804 219.119 224.113 217.029 227.386C217.912 223.179 221.346 213.455 217.395 211.351C214.732 211.253 211.353 213.139 208.815 214.298C195.785 220.051 179.059 232.156 172.16 244.494C170.768 246.349 167.814 251.035 166.446 252.518L165.439 252.337C160.361 260.031 159.957 264.862 156.55 272.194L155.368 271.971C153.471 267.151 159.065 263.118 158.897 257.421C154.926 264.768 153.151 270.443 150.927 278.556L150.637 277.274C149.21 278.172 146.574 285.931 145.298 288.535C145.467 294.553 140.424 297.06 138.834 301.885C138.632 302.344 137.742 303.612 137.377 304.036C122.568 320.956 101.49 337.495 78.5187 340.176C46.2257 343.945 18.8957 322.668 15.3767 290.027C13.0887 265.873 21.1737 241.972 40.9527 226.701C46.3417 222.541 55.5707 221.565 59.4707 228.366C66.0967 239.921 51.0948 247.611 45.3518 255.469C35.6728 268.315 34.0517 287.619 42.5227 301.481C46.5437 308.06 54.0587 314.322 61.8747 315.687C101.205 322.559 125.354 278.039 147.31 253.061C158.41 240.264 170.41 229.142 184.515 220.283C211.346 203.432 241.427 200.498 270.264 187.588C286.529 180.268 301.931 171.163 316.187 160.441C323.228 155.06 329.762 148.593 337.217 143.902Z" fill="url(#paint1_linear_5_208)"/>
<path d="M337.217 143.902C337.107 145.861 335.397 148.591 334.09 149.865C330.161 151.632 318.412 164.717 314.475 168.183C311.221 171.049 310.713 168.5 307.03 172.87C298.041 177.962 289.529 183.536 280.282 188.211C262.426 197.237 242.506 203.698 223.127 208.71C223.094 210.365 222.907 214.787 223.117 216.211C221.632 219.804 219.119 224.113 217.029 227.386C217.912 223.179 221.346 213.455 217.395 211.351C214.732 211.253 211.353 213.139 208.815 214.298C195.785 220.051 179.059 232.156 172.16 244.494C170.768 246.349 167.814 251.035 166.446 252.518L165.439 252.337C160.361 260.031 159.957 264.862 156.55 272.194L155.368 271.971C153.471 267.151 159.065 263.118 158.897 257.421C160.304 252.452 166.128 244.176 169.321 240.066L167.241 239.123C158.285 247.633 153.332 252.725 145.656 262.786C145.328 263.14 144.736 263.686 144.582 264.087C130.733 280.995 118.714 298.058 100.827 311.191C74.8948 330.231 36.0008 321.434 32.6188 285.896C32.1598 281.244 32.3897 276.549 33.3007 271.963C31.3227 270.427 30.1627 264.645 29.6267 262.123C29.1987 263.997 27.6708 269.051 28.1298 270.331L25.1728 269.813C25.2368 266.935 23.2147 268.331 23.6777 263.849L22.5117 262.102C20.0277 268.536 18.9828 277.236 19.2868 284.109C19.0178 289.304 20.0837 288.713 15.3767 290.027C13.0887 265.873 21.1737 241.972 40.9527 226.701C46.3417 222.541 55.5707 221.565 59.4707 228.366C66.0967 239.921 51.0948 247.611 45.3518 255.469C35.6728 268.315 34.0517 287.619 42.5227 301.481C46.5437 308.06 54.0587 314.322 61.8747 315.687C101.205 322.559 125.354 278.039 147.31 253.061C158.41 240.264 170.41 229.142 184.515 220.283C211.346 203.432 241.427 200.498 270.264 187.588C286.529 180.268 301.931 171.163 316.187 160.441C323.228 155.06 329.762 148.593 337.217 143.902Z" fill="url(#paint2_linear_5_208)"/>
<path d="M22.5117 262.102C26.0887 250.6 35.0547 236.197 45.6607 229.731C50.5647 226.741 56.7267 229.408 56.0527 235.953C47.1147 248.694 37.1467 252.484 33.3007 271.963C31.3227 270.427 30.1627 264.645 29.6267 262.123C29.1987 263.997 27.6707 269.051 28.1297 270.331L25.1727 269.813C25.2367 266.935 23.2147 268.331 23.6777 263.849L22.5117 262.102Z" fill="#012650"/>
<path d="M23.6777 263.849C24.7987 263.766 27.1157 263.91 27.4667 262.948C31.8257 251.01 38.1757 242.083 47.3117 233.153C48.8767 231.623 52.0848 230.729 53.6888 232.809C51.7178 235.708 49.5257 234.385 47.9567 235.473C41.2227 240.143 32.6197 255.021 29.6267 262.123C29.1987 263.997 27.6707 269.051 28.1297 270.331L25.1727 269.813C25.2367 266.935 23.2147 268.331 23.6777 263.849Z" fill="#2375A4"/>
<path d="M167.241 239.123C169.51 237.056 172.823 233.848 175.195 232.083L176.104 232.459L176.787 231.214L176.816 231.244L176.698 231.622L176.21 231.412L176.427 232.065L176.761 231.205L175.407 231.968L175.907 232.773C173.67 235.167 171.474 237.598 169.321 240.066L167.241 239.123Z" fill="#2375A4"/>
<path d="M19.2867 284.109C20.5107 292.042 21.1567 298.671 24.4997 306.17C34.2667 328.083 56.3437 339.161 79.9187 335.367C106.886 331.027 127.618 309.994 144.41 289.867C144.666 289.557 145.076 288.896 145.298 288.535C145.467 294.553 140.424 297.06 138.834 301.885C138.632 302.344 137.742 303.612 137.377 304.036C122.568 320.956 101.49 337.495 78.5187 340.176C46.2257 343.945 18.8957 322.668 15.3767 290.027C20.0837 288.713 19.0177 289.304 19.2867 284.109Z" fill="#2D6598"/>
<path d="M28.0618 287.316L29.7298 287.848L29.6018 288.464C26.4928 303.885 37.9688 308.473 37.4888 312.813L36.7018 313.386C30.7988 309.758 26.1838 296.024 25.7958 289.193L26.3038 287.962L28.0618 287.316Z" fill="#3A88B9"/>
<path d="M25.1728 269.813L28.1298 270.331C29.7978 271.987 29.7508 272.058 28.7258 274.425C27.4908 277.276 26.5917 284.421 28.0617 287.316L26.3038 287.962L25.7958 289.193C25.4688 287.527 24.9028 270.844 25.1728 269.813Z" fill="#2D6598"/>
<path d="M146.974 265.906L147.687 268.156C144.23 271.364 142.915 275.533 138.753 279.799L138.31 279.564C141.196 272.57 142.166 271.783 146.974 265.906Z" fill="#2D6598"/>
<path d="M144.582 264.087C144.736 263.686 145.328 263.14 145.656 262.786C148.612 262.592 148.608 262.128 150.859 263.308C151.102 265.671 149.435 266.768 147.687 268.156L146.974 265.906L144.582 264.087Z" fill="#2D6598"/>
<path d="M71.1747 325.538C82.9897 323.51 93.2627 320.823 102.809 313.432C104.499 312.123 107.239 309.866 109.259 309.454L109.697 310.357C104.611 319.226 82.0278 325.966 72.4478 327.664C69.5778 328.235 68.9827 329.367 66.7997 330.181L65.7607 330.12L66.1517 327.354C67.6667 325.671 68.3917 326.063 71.1747 325.538Z" fill="#4DA6D2"/>
<path d="M72.4477 327.664L72.2577 328.72L73.1087 329.718L73.6117 329.585C77.2247 328.666 78.7027 329.609 81.1427 329.03C92.2907 326.389 98.8627 322.876 108.067 316.703C101.482 325.196 91.7817 329.471 81.2907 330.797C76.4597 331.4 71.5617 331.192 66.7997 330.181C68.9827 329.367 69.5777 328.235 72.4477 327.664Z" fill="#2D6598"/>
<path d="M135.697 281.321C137.382 281.922 137.61 282.001 138.701 283.403C137.824 286.005 125.162 295.757 122.403 304.817C120.6 304.132 119.617 303.981 118.506 302.436C118.978 300.647 132.062 290.16 135.697 281.321Z" fill="#3A88B9"/>
<path d="M42.6317 319.315C49.0437 321.13 54.5367 324.907 60.8857 326.869C66.2997 328.542 64.9177 325.607 71.1747 325.538C68.3917 326.063 67.6667 325.671 66.1517 327.354L65.7607 330.12C58.9437 329.14 47.7987 323.844 42.6317 319.315Z" fill="#16467A"/>
<path d="M119.233 308.047C119.781 309.026 119.562 308.517 119.421 309.925C117.053 313.233 114.452 314.635 110.804 316.303L110.357 315.976C111.212 313.815 117.233 309.449 119.233 308.047Z" fill="#3A88B9"/>
<path d="M206.221 342.288C213.403 331.024 237.247 306.563 249.919 303.269C263.199 299.818 286.422 303.06 300.654 302.912C311.801 302.797 320.398 301.485 331.407 299.774C317.847 304.539 308.444 303.206 295.775 305.05C295.11 309.425 293.739 316.679 292.35 320.86C287.015 342.164 278.615 354.427 260.558 366.961C252.965 372.231 244.756 377.544 251.566 387.474C256.067 394.039 265.549 403.962 272.387 407.998C280.627 407.986 291.204 405.299 297.549 411.696C301.48 415.659 305.566 425.214 303.093 430.665C298.878 431.688 289.358 431.009 284.731 430.73C276.757 431.007 267.224 431.154 259.288 430.567C249.958 425.109 227.162 402.537 218.209 393.814C215.233 390.915 209.22 384.613 208.036 380.651C205.438 371.957 218.431 364.857 221.732 356.925C224.874 349.373 224.761 348.394 224.861 340.713C224.393 336.964 224.666 330.014 219.866 330.215C216.959 331.75 210.308 339.174 206.221 342.288Z" fill="#012650"/>
<path d="M249.365 369.879C263.865 358.524 278.05 348.556 284.745 330.583C286.283 326.457 289.095 310.293 292.134 308.922C293.669 311.002 292.612 318.076 292.35 320.86C287.015 342.164 278.615 354.427 260.558 366.961C252.965 372.231 244.756 377.544 251.566 387.474C256.067 394.039 265.549 403.962 272.387 407.998C280.627 407.986 291.204 405.299 297.549 411.696C301.48 415.659 305.566 425.214 303.093 430.665C298.878 431.688 289.358 431.009 284.731 430.73C287.352 430.279 290.177 430.588 292.486 429.447L288.645 428.894L288.018 427.848L288.753 426.177C290.545 421.854 284.306 417.653 281.307 415.836C277.288 414.133 273.488 414.578 270.241 412.866L271.433 412.354L267.35 409.098C260.331 403.02 245.339 391.47 244.037 381.846C243.373 376.938 246.545 373.46 249.365 369.879Z" fill="#61CAED"/>
<path d="M271.433 412.354C280.384 412.864 288.272 409.106 294.727 415.77C299.382 420.576 298.526 428.932 303.093 430.665C298.878 431.688 289.358 431.009 284.731 430.73C287.352 430.279 290.177 430.588 292.486 429.447L288.645 428.894L288.018 427.848L288.753 426.177C290.545 421.854 284.306 417.653 281.307 415.836C277.288 414.133 273.488 414.578 270.241 412.866L271.433 412.354Z" fill="#012650"/>
<path d="M281.307 415.836C289.063 412.099 292.388 423.706 292.486 429.447L288.645 428.894L288.018 427.848L288.753 426.177C290.545 421.854 284.306 417.653 281.307 415.836Z" fill="#3A88B9"/>
<path d="M224.861 340.713C224.792 337.129 224.341 334.356 225.961 331.172L226.831 330.871C229.061 333.585 229.632 341.839 229.353 345.401C228.188 360.277 219.196 366.764 212.575 378.602C212.164 379.336 214.997 383.431 215.773 384.243C225.354 394.28 250.584 420.483 261.419 426.834C270.666 426.949 280.157 426.016 288.753 426.177L288.018 427.848L288.645 428.894L292.486 429.447C290.177 430.588 287.352 430.279 284.731 430.73C276.757 431.007 267.224 431.154 259.288 430.567C249.958 425.109 227.162 402.537 218.209 393.814C215.233 390.915 209.22 384.613 208.036 380.651C205.438 371.957 218.431 364.857 221.732 356.925C224.874 349.373 224.761 348.394 224.861 340.713Z" fill="url(#paint3_linear_5_208)"/>
<path d="M267.35 409.098C265.259 409.635 262.201 409.77 260.532 408.317C252.792 401.583 237.656 388.515 235.181 378.795C233.029 370.339 246.46 360.848 250.314 353.407C251.857 350.426 251.208 349.972 250.396 346.707L252.089 344.743C252.093 351.432 254.562 351.721 260.573 352.267C257.42 355.073 247.59 363.259 246.473 366.628L246.907 367.36L247.629 367.466C248.097 368.442 248.424 369.279 249.365 369.879C246.545 373.46 243.373 376.938 244.037 381.846C245.339 391.47 260.331 403.02 267.35 409.098Z" fill="url(#paint4_linear_5_208)"/>
<path d="M262.154 334.818C264.108 328.915 264.592 320.273 266.738 314.035C266.926 333.533 267.385 333.902 252.089 344.743L250.396 346.707C251.208 349.972 251.857 350.426 250.314 353.407C246.46 360.848 233.029 370.339 235.181 378.795C237.656 388.515 252.792 401.583 260.532 408.317C262.201 409.77 265.259 409.635 267.35 409.098L271.433 412.354L270.241 412.866C267.935 412.264 263.681 411.709 261.196 411.306C254.058 405.32 246.203 396.936 239.404 390.416C236.126 387.272 232.057 380.48 232.482 375.805C233.038 369.681 241.413 363.323 244.263 357.821C245.851 354.758 247.02 347.024 248.932 344.79C252.281 340.879 257.442 339.26 261.675 335.277L262.154 334.818Z" fill="#2D6598"/>
<path d="M274.698 330.555L276.373 330.926C275.861 332.797 275.035 337.049 274.459 338.345C269.213 350.163 256.688 357.801 247.629 367.466L246.907 367.36L246.473 366.628C247.59 363.259 257.42 355.073 260.573 352.267C268.206 345.737 272.513 340.64 274.698 330.555Z" fill="#4DA6D2"/>
<path d="M274.698 330.555C275.166 327.4 275.549 322.888 277.035 320.218L277.723 320.146L277.925 322.418L277.995 322.049C277.901 325.68 277.305 327.48 276.373 330.926L274.698 330.555Z" fill="#16467A"/>
<path d="M237.241 346.425C239.733 346.738 240.091 346.854 241.527 348.715C242.888 355.993 227.584 368.373 225.779 374.306L227.825 377.459C228.167 379.378 227.335 380.447 226.411 382.241C228.004 386.33 239.199 397.348 242.897 401.601L242.148 402.641C239.119 400.351 220.485 380.677 219.65 378.158C221.224 374.192 233.863 360.498 236.338 355.605C238.308 351.712 234.045 352.748 237.241 346.425Z" fill="#2D6598"/>
<path d="M252.942 315.239L253.956 316.532C253.555 329.394 250.346 337.27 242.559 347.855L241.865 346.656C241.361 342.934 247.734 335.058 250.193 331.803C250.435 325.978 251.593 320.87 252.942 315.239Z" fill="#16467A"/>
<path d="M278.167 310.303C279.648 309.693 281.345 310.382 281.981 311.853C282.617 313.323 281.958 315.032 280.5 315.695C279.534 316.134 278.405 316.017 277.549 315.389C276.692 314.761 276.242 313.719 276.37 312.665C276.498 311.61 277.186 310.707 278.167 310.303Z" fill="#2D6598"/>
<path d="M495.629 76.6063C497.04 73.3003 498.967 68.9443 501.803 67.0623C508.203 62.8133 514.314 72.4493 518.374 75.9513C519.71 76.1853 520.827 76.3803 521.724 76.5373C523.369 76.3793 523.54 76.2653 524.834 75.2273C534.433 64.7963 543.247 67.0343 542.07 82.0933L542.391 84.1863C552.24 91.2223 568.692 102.981 570.923 115.665C571.673 119.93 570.948 122.684 572.561 127.298C575.819 136.615 590.316 147.336 582.19 156.85C578.591 161.064 574.946 165.266 570.6 168.792C563.877 172.337 561.292 172.29 553.532 171.207L553.718 169.502C554.915 168.527 557.508 168.637 559.531 168.361C567.686 166.454 571.731 161.864 577.075 155.958C573.921 154.425 567.367 151.672 567.24 147.601C569.164 147.122 569.14 147.553 571.264 148.493C572.574 148.052 573.336 147.177 574.378 146.235C575.135 145.751 575.562 145.226 576.175 144.578L575.869 143.215L576.258 142.089C574.12 136.982 569.69 131.317 567.405 126.212C566.783 124.822 566.927 120.267 566.13 117.356C564.672 116.987 564.629 116.953 563.446 116.043C562.801 112.572 563.859 115.595 564.669 111.834L562.833 109.183C556.919 100.958 550.545 96.2323 542.709 90.0773C534.874 84.6703 529.135 82.6853 519.925 80.4243C521.85 83.5643 526.121 88.8573 524.742 92.3333C523.12 90.8533 521.159 88.7213 519.588 87.1043C518.749 87.7113 517.407 88.6153 516.665 89.2573C516.071 86.3793 508.251 75.6593 505.695 74.6613C504.987 72.3083 505.588 73.0703 503.433 71.8293C502.075 73.7183 501.334 74.7313 500.267 76.8213C497.605 80.4073 497.276 79.4253 493.791 81.2923C482.772 82.8393 474.698 84.2733 464.006 86.9343L461.779 87.5133C458.44 88.3913 458.226 87.7803 457.309 91.4583C453.547 92.7893 452.804 90.6823 450.079 91.4043C440.123 94.0393 430.856 98.0773 423.844 105.517L423.003 102.947C417.911 104.276 411.362 108.515 406.058 110.276C390.023 115.601 375.05 112.824 361.877 124.638L361.83 125.441L363.843 127.076C363.676 129.059 363.727 128.47 362.094 130.207L360.996 130.176L359.297 127.822C356.694 128.405 351.155 136.104 349.58 138.606C340.01 153.81 340.23 170.716 339.949 187.95C334.714 193.353 304.611 223.268 304.167 227.672C303.97 229.63 303.889 230.458 302.716 232.094C299.697 233.303 297.872 232.424 296.617 229.328C297.269 223.698 301.967 225.173 304.322 222.546C314.776 210.882 327.693 198.557 337.536 186.581C337.467 176.282 337.915 166.867 337.993 156.83L337.732 155.401L336.413 154.789C339.072 148.492 341.859 142.25 344.775 136.068C345.442 135.03 346.145 134.015 346.884 133.027C365.917 107.594 375.359 113.27 403.21 105.565C411.575 103.251 426.84 95.3243 435.414 91.3653C455.768 81.9663 473.882 79.6833 495.629 76.6063Z" fill="url(#paint5_linear_5_208)"/>
<path d="M524.834 75.2273C534.433 64.7963 543.247 67.0343 542.07 82.0933C537.868 79.3573 529.775 76.7203 524.834 75.2273Z" fill="#6AE8FC"/>
<path d="M503.433 71.8293C509.398 68.5843 516.533 82.6023 519.588 87.1043C518.749 87.7113 517.407 88.6153 516.665 89.2573C516.071 86.3793 508.251 75.6593 505.695 74.6613C504.987 72.3083 505.588 73.0703 503.433 71.8293Z" fill="#16467A"/>
<path d="M576.258 142.089C578.563 146.001 579.619 148.07 581.383 152.249C578.859 151.39 573.38 149.697 571.264 148.493C572.574 148.052 573.336 147.177 574.378 146.235C575.135 145.751 575.562 145.226 576.175 144.578L575.869 143.215L576.258 142.089Z" fill="#16467A"/>
<path d="M426.672 216.383C426.84 203.655 425.975 192.42 419.764 181.002C418.742 179.124 415.898 175.181 416.367 173.413C420.465 175.18 424.31 184.874 425.925 188.755C436.857 215.026 428.571 240.565 415.4 264.115C412.508 269.286 405.969 282.04 408.454 288.024C412.602 299.987 418.143 311.811 422.653 323.656C428.894 340.045 435.047 355.857 442.873 371.589C445.519 376.906 448.108 383.341 451.126 388.38C454.567 394.113 458.844 399.3 463.816 403.768C467.149 403.873 477.954 403.732 480.183 404.201L479.833 404.237C478.994 404.318 478.539 404.455 477.778 404.118C476.194 405.344 476.97 405.099 474.827 404.937L474.909 405.326L475.879 405.543L475.487 404.919L476.395 406.03L476.155 407.072L474.792 407.7L476.42 407.374L476.65 408.257L477.769 408.426C472.11 408.526 467.262 408.646 461.591 408.176C450.103 397.086 445.642 388.413 439.38 374.294C438.246 374.584 437.834 375.2 437.021 376.042L436.672 376.408L435.842 376.376C433.262 374.198 431.598 369.406 430.853 366.193C429.806 364.797 427.817 359.407 427.081 357.486C428.435 352.589 420.36 342.304 418.75 337.262C417.716 334.023 417.643 335.284 419.018 332.01L419.257 333.035L420.402 331.272C413.002 314.936 406.355 296.087 399.001 279.074C400.488 280.214 401.72 281.712 402.986 283.113C405.371 273.665 408.815 267.577 412.751 258.752C419.953 248.139 425.756 229.423 426.672 216.383Z" fill="url(#paint6_linear_5_208)"/>
<path d="M420.402 331.272C423.186 338.355 431.26 355.281 432.766 360.343C435.307 365.267 437.287 369.183 439.38 374.294C438.246 374.584 437.834 375.2 437.021 376.042L436.672 376.408L435.842 376.376C433.262 374.198 431.598 369.406 430.853 366.193C429.806 364.797 427.817 359.407 427.081 357.486C428.435 352.589 420.36 342.304 418.75 337.262C417.716 334.023 417.643 335.284 419.018 332.01L419.257 333.035L420.402 331.272Z" fill="#16467A"/>
<path d="M221.277 316.969C234.675 305.013 248.779 295.239 266.701 291.377L267.351 293.613C263.567 294.966 260.382 296.049 256.757 297.826C275.103 296.903 293.962 299.006 312.701 297.998C322.109 297.492 331.581 293.405 338.308 293.039C339.682 294.41 339.366 294.647 339.8 296.779C337.694 297.723 333.699 299.427 331.407 299.774C320.398 301.485 311.801 302.797 300.654 302.912C286.422 303.06 263.199 299.818 249.919 303.269C237.247 306.563 213.403 331.024 206.221 342.288C196.172 352.427 180.435 363.546 166.209 366.391L166.098 366.153C167.132 363.48 177.9 363.251 180.349 358.678L179.84 357.614C174.782 359.808 170.954 361.839 165.617 363.396L165.014 362.586C198.995 349.956 213.94 330.662 225.782 296.704C227.742 297.535 227.458 297.079 228.499 298.577C226.759 304.732 223.844 311.07 221.277 316.969Z" fill="url(#paint7_linear_5_208)"/>
<path d="M307.03 172.87C305.743 176.113 294.947 185.994 291.709 188.441L292.494 189.472C288.288 192.572 282.596 195.832 277.868 198.083C279.899 198.83 282.91 199.634 284.159 201.206C284.191 202.636 284.187 202.557 283.405 203.775C279.827 204.847 279.784 203.026 275.919 203.514L274.806 204.231C274.342 207.475 276.272 208.509 274.229 211.155C274.35 209.239 274.651 208.003 273.476 206.464C272.033 206.075 265.085 209.255 262.819 210.086C255.687 212.713 248.454 215.057 241.137 217.112C236.105 218.545 227.761 220.565 223.262 222.657C223.385 220.796 223.198 218.138 223.117 216.211C222.907 214.787 223.094 210.365 223.127 208.71C242.506 203.698 262.426 197.237 280.282 188.211C289.529 183.536 298.041 177.962 307.03 172.87Z" fill="url(#paint8_linear_5_208)"/>
<path d="M283.405 203.775C274.58 200.782 281.053 198.879 269.232 202.818C260.956 205.575 234.621 216.829 227.639 213.52C226.665 211.944 226.828 212.703 227.27 210.552C228.65 209.516 227.901 209.702 229.579 209.937C230.365 211.371 230.629 212.26 232.082 212.928C254.078 206.518 272.006 200.911 291.709 188.441L292.494 189.472C288.288 192.572 282.596 195.832 277.868 198.083C279.899 198.83 282.91 199.634 284.159 201.206C284.191 202.636 284.187 202.557 283.405 203.775Z" fill="#4DA6D2"/>
<path d="M158.897 257.421C159.065 263.118 153.471 267.151 155.368 271.971L156.55 272.194C159.957 264.862 160.361 260.031 165.439 252.337L166.446 252.518C161.533 262.005 157.68 271.446 155.062 281.837C151.221 297.081 149.658 311.528 142.295 325.729C131.451 346.643 109.172 347.59 104.891 353.889C102.767 357.015 93.2106 392.636 90.8406 400.01C89.9016 394.958 92.0207 397.372 88.8737 391.686C92.8637 379.992 95.4586 367.895 98.7986 355.868C101.776 345.15 110.933 346.18 120.763 340.731C138.239 331.043 139.862 320.931 145.471 303.865C145.509 301.75 145.817 298.736 144.774 297.015C142.597 297.169 140.469 300.1 138.834 301.885C140.424 297.06 145.467 294.553 145.298 288.535C146.574 285.931 149.21 278.172 150.637 277.274L150.927 278.556C153.151 270.443 154.926 264.768 158.897 257.421Z" fill="url(#paint9_linear_5_208)"/>
<path d="M145.298 288.535C146.574 285.931 149.21 278.172 150.637 277.274L150.927 278.556C149.827 284.852 147.513 298.245 145.471 303.865C145.509 301.75 145.817 298.736 144.774 297.015C142.597 297.169 140.469 300.1 138.834 301.885C140.424 297.06 145.467 294.553 145.298 288.535Z" fill="#012650"/>
<path d="M470.886 262.397C467.43 258.452 458.307 251.011 458.17 246.458C459.942 244.963 459.097 245.398 461.625 245.008C475.192 261.399 492.101 272.717 505.34 288.536C512.938 297.614 509.672 311.903 506.107 321.561C502.576 333.187 501.414 344.16 491.139 352.354C485.752 357.002 474.126 359.691 468.798 354.096C474.893 350.462 481.24 354.979 488.275 349.636C498.022 342.235 498.759 333.255 500.764 322.206C501.589 320.539 502.167 317.924 502.899 316.13C509.279 300.496 503.462 290.455 491.149 280.118C487.509 276.42 481.62 271.617 477.572 268.116C475.573 266.259 473.138 263.825 470.886 262.397Z" fill="url(#paint10_linear_5_208)"/>
<path d="M352.83 236.971C354.112 235.648 354.296 235.404 356.066 234.967C358.952 253.837 357.386 269.206 350.31 287.012C355.191 294.072 360.229 302.447 367.211 307.28C365.85 307.576 365.507 307.539 364.507 308.429C365.144 309.939 365.231 310.004 366.351 311.231C369.329 315.325 378.929 328.225 380.903 332.352L381.013 332.944C381.938 337.781 384.042 338.435 382.068 341.603C371.43 327.353 361.411 310.871 350.457 296.149C349.53 294.299 346.13 289.961 344.744 288.099C352.092 270.137 354.338 256.085 352.83 236.971Z" fill="url(#paint11_linear_5_208)"/>
<path d="M380.903 332.352C391.284 346.026 404.006 366.179 412.128 381.446C414.329 385.582 416.172 392.221 417.902 396.735C429.895 402.54 432.199 404.868 438.289 416.436C437.878 418.735 438.234 419.338 436.042 420.658C429.4 408.688 426.946 405.84 414.483 401.048C413.867 399.531 413.446 397.94 412.989 396.369C407.028 375.867 392.888 359.612 382.068 341.603C384.042 338.435 381.938 337.781 381.013 332.944L380.903 332.352Z" fill="url(#paint12_linear_5_208)"/>
<path d="M176.418 248.501C177.442 247.811 189.442 234.133 190.613 232.627L187.634 230.678L187.473 229.58L188.555 228.279C190.602 228.302 192.478 230.742 192.845 230.61C196.034 229.464 208.336 220.376 211.129 220.335L211.712 221.417C210.594 223.719 207.043 224.286 204.717 225.717C201.3 227.821 198.157 229.78 195.05 232.341C188.819 236.66 182.631 245.191 177.877 251.157C173.478 256.678 175.686 264.492 174.654 270.879C167.761 274.421 164.199 275.454 164.206 283.679C163.12 296.522 162.117 306.894 155.186 317.995C154.819 317.17 157.325 309.97 157.773 308.98C162.253 299.086 160.565 288.342 162.312 277.906C162.744 276.266 163.41 273.703 165.165 273.028C168.53 271.736 165.061 266.393 167.668 262.824C168.883 259.142 169.617 259.271 172.82 258.141C174.429 254.892 173.016 253.46 176.418 248.501Z" fill="#3A88B9"/>
<path d="M167.668 262.824C168.883 259.142 169.617 259.271 172.82 258.141C171.298 260.587 171.01 260.982 168.873 262.9L167.961 263.057L167.668 262.824Z" fill="#4DA6D2"/>
<path d="M480.183 404.201C486.416 406.204 490.611 411.172 493.692 416.81C494.473 422.11 495.931 427.018 492.192 431.369C488.278 432.275 485.863 432.25 481.882 432.377L481.877 431.38C481.958 425.637 482.07 422.546 479.089 417.164C477.98 415.162 476.998 414.668 476.427 412.421C477.439 411.621 478.715 410.395 479.705 409.504L477.769 408.426L476.65 408.257L476.42 407.374L474.792 407.7L476.155 407.072L476.395 406.03L475.487 404.919L475.879 405.543L474.909 405.326L474.827 404.937C476.97 405.099 476.194 405.344 477.778 404.118C478.539 404.455 478.994 404.318 479.833 404.237L480.183 404.201Z" fill="#012650"/>
<path d="M480.183 404.201C486.416 406.204 490.611 411.172 493.692 416.81C492.661 417.504 491.26 418.516 490.216 419.104C487.758 415.346 483.907 411.249 479.705 409.504L477.769 408.426L476.65 408.257L476.42 407.374L474.792 407.7L476.155 407.072L476.395 406.03L475.487 404.919L475.879 405.543L474.909 405.326L474.827 404.937C476.97 405.099 476.194 405.344 477.778 404.118C478.539 404.455 478.994 404.318 479.833 404.237L480.183 404.201Z" fill="#6AE8FC"/>
<path d="M476.427 412.421C485.103 412.84 488.263 429.501 481.877 431.38C481.958 425.637 482.07 422.546 479.089 417.164C477.98 415.162 476.998 414.668 476.427 412.421Z" fill="#4DA6D2"/>
<path d="M493.692 416.81C494.473 422.11 495.931 427.018 492.192 431.369C491.208 427.758 491.764 424.295 490.216 419.104C491.26 418.516 492.661 417.504 493.692 416.81Z" fill="#4DA6D2"/>
<path d="M504.219 157.836C506.196 158.713 506.534 158.844 508.076 160.474C512.335 165.709 513.771 162.304 518.86 165.011C494.843 164.4 494.312 163.285 476.581 179.991C475.648 180.879 474.736 181.79 473.847 182.723C473.563 183.017 473.681 182.919 473.44 183.076C468.18 187.234 460.43 200.978 454.498 207.888C461.335 188.08 472.165 172.781 491.185 162.742C495.012 160.722 500.084 159.469 504.219 157.836Z" fill="url(#paint13_linear_5_208)"/>
<path d="M533.866 96.9223C534.155 95.1213 534.346 94.7493 535.116 93.0853C535.867 101.545 550.866 104.049 556.064 112.77L553.842 114.506C555.279 115.384 555.456 115.434 556.501 116.715L555.875 117.071C552.924 115.593 547.442 111.933 545.074 111.18C538.57 109.109 532.225 108.695 525.678 106.024C521.621 102.675 520.753 96.9533 524.475 93.0743C528.456 93.8013 530.869 94.0033 533.866 96.9223Z" fill="url(#paint14_linear_5_208)"/>
<path d="M524.475 93.0743C528.456 93.8013 530.869 94.0033 533.866 96.9223L533.801 98.7543L532.68 99.3253C530.419 97.5723 530.931 96.7593 527.947 95.2183C520.03 95.5773 524.733 104.284 532.023 106.056C539.261 107.815 548.057 109.879 553.842 114.506C555.279 115.384 555.456 115.434 556.501 116.715L555.875 117.071C552.924 115.593 547.442 111.933 545.074 111.18C538.57 109.109 532.225 108.695 525.678 106.024C521.621 102.675 520.753 96.9533 524.475 93.0743Z" fill="#4DA6D2"/>
<path d="M165.014 362.586L165.617 363.396C170.954 361.839 174.782 359.808 179.84 357.614L180.349 358.678C177.9 363.251 167.132 363.48 166.098 366.153L166.209 366.391L165.744 366.576C144.834 374.732 131.254 362.864 119.357 389.145L118.754 390.488C118.456 390.427 117.952 390.61 117.597 390.697C116.193 394.663 115.275 396.849 113.419 400.623C112.886 397.274 116.98 391.146 116.38 386.644C118.814 376.74 123.772 372.23 132.571 367.931C143.331 365.665 154.107 364.783 165.014 362.586Z" fill="#4DA6D2"/>
<path d="M88.8737 391.686C92.0207 397.372 89.9017 394.958 90.8407 400.01C89.5817 406.751 84.9817 425.995 95.4707 429.139C97.1287 429.637 104.83 428.741 106.505 428.023C106.825 428.242 107.093 428.151 107.62 428.168C108.709 426.495 108.816 424.116 109.082 422.09L109.944 428.773L118.713 428.637L119.056 431.263C119.61 431.674 120.337 432.258 120.911 432.594L118.087 433.356C110.714 432.448 98.4417 434.489 91.9887 432.785C77.4447 428.945 86.2207 400.544 88.8737 391.686Z" fill="#16467A"/>
<path d="M367.211 307.28C371.262 309.383 390.227 319.476 392.182 322.52C401.807 337.505 409.185 355.411 417.74 371.227C422.48 379.992 423.457 383.348 423.382 393.378C420.165 383.753 421.035 382.005 415.877 372.397C413.069 373.315 408.677 364.529 407.429 362.266L407.116 358.709L407.899 357.595C403.359 348.534 398.942 339.661 394.812 330.43C391.183 322.316 382.941 318.266 375.556 314.392C372.827 312.959 370.88 311.321 367.731 310.389L366.351 311.231C365.231 310.004 365.144 309.939 364.507 308.429C365.507 307.539 365.85 307.576 367.211 307.28Z" fill="#2D6598"/>
<path d="M407.899 357.595C409.77 360.763 414.404 369.042 415.877 372.397C413.069 373.315 408.677 364.529 407.429 362.266L407.116 358.709L407.899 357.595Z" fill="#012650"/>
<path d="M208.967 215.172C210.455 216.092 209.808 215.854 211.612 215.889C214.034 214.476 214.382 213.712 216.728 213.822C216.42 214.866 212.448 217.969 211.353 218.902L212.467 219.55C212.467 220.794 212.692 222.801 211.469 223.402C208.067 225.073 197.823 231.778 195.05 232.341C198.157 229.78 201.3 227.821 204.717 225.717C207.043 224.286 210.594 223.719 211.712 221.417L211.129 220.335C208.336 220.376 196.034 229.464 192.845 230.61C192.478 230.742 190.602 228.302 188.555 228.279L187.473 229.58L187.634 230.678L190.613 232.627C189.442 234.133 177.442 247.811 176.418 248.501C177.082 242.83 188.32 236.409 188.246 232.198C182.851 230.092 176.341 241.101 173.102 245.021L172.16 244.494C179.059 232.156 195.785 220.051 208.815 214.298L208.967 215.172Z" fill="#16467A"/>
<path d="M494.816 328.582L495.088 329.829C497.014 328.941 498.456 324.619 500.764 322.206C498.759 333.255 498.022 342.235 488.275 349.636C481.24 354.979 474.893 350.462 468.798 354.096C469.873 351.916 470.161 352.158 469.985 350.034C468.574 348.402 467.777 347.593 467.173 345.473L468.025 345.74C469.365 344.35 469.471 344.122 470.154 342.31C474.907 347.651 481.433 347.056 487.284 343.639L488.51 344.774C490.878 341.984 493.516 332.492 494.816 328.582Z" fill="#012650"/>
<path d="M468.025 345.74C469.365 344.35 469.471 344.122 470.154 342.31C474.907 347.651 481.433 347.056 487.284 343.639L488.51 344.774C482.911 349.47 473.156 352.814 468.025 345.74Z" fill="#3A88B9"/>
<path d="M422.829 282.297L420.323 278.873L420.469 278.297C427.462 280.18 436.603 283.834 443.495 286.397C451.859 289.508 471.634 294.108 477.729 300.118L477.788 301.034L476.906 301.584C466.237 299.333 431.481 287.476 422.829 282.297Z" fill="#3A88B9"/>
<path d="M110.577 405.164C111.551 399.446 113.724 391.756 116.38 386.644C116.98 391.146 112.886 397.274 113.419 400.623C115.275 396.849 116.193 394.663 117.597 390.697C117.952 390.61 118.456 390.427 118.754 390.488C118.135 394.74 115.519 399.548 114.593 404.918C120.591 407.432 128.813 410.385 131.525 416.889C132.997 420.418 134.623 429.74 131.711 432.82C130.128 433.261 129.969 433.141 128.309 432.767C129.279 423.914 128.499 418.797 121.061 413.356C114.23 412.785 111.978 412.073 110.577 405.164Z" fill="#2D6598"/>
<path d="M121.061 413.356L121.896 412.003C129.869 410.67 134.339 424.034 131.7 431.389C130.087 432.731 130.732 432.302 128.309 432.767C129.279 423.914 128.499 418.797 121.061 413.356Z" fill="#4DA6D2"/>
<path d="M451.666 258.249C455.446 257.338 456.463 257.282 459.936 259.433C462.509 261.029 464.872 262.942 466.969 265.127L468.195 265.293C468.777 264.475 468.949 264.364 469.174 263.371L469.617 264.902C471.36 266.154 470.631 265.962 472.484 266.033L472.349 264.953L472.388 266.078C471.852 264.459 472.23 264.846 471.048 263.923L470.886 262.397C473.138 263.825 475.573 266.259 477.572 268.116C481.62 271.617 487.509 276.42 491.149 280.118L490.63 280.441C490.693 285.098 487.924 283.353 492.9 287.78C493.36 289.389 493.425 289.611 493.163 291.256C490.464 283.289 467.003 270.376 460.299 263.966C459.935 262.824 459.637 261.887 459.404 261.155C457.478 259.834 457.697 260.259 454.967 260.178C454.589 259.585 452.469 258.663 451.666 258.249Z" fill="#16467A"/>
<path d="M477.572 268.116C481.62 271.617 487.509 276.42 491.149 280.118L490.63 280.441L489.627 280.331C489.601 281.155 489.59 281.271 489.404 282.074C486.469 281.636 475.228 272.848 475.39 269.415L477.572 268.116Z" fill="#3A88B9"/>
<path d="M471.215 191.074C471.799 206.313 471.175 219.736 462.749 233.033C455.077 242.16 457.758 241.518 446.881 250.114C450.387 244.743 454.027 239.309 457.276 233.79C461.381 227.649 464.391 218.152 466.121 211.032C467.105 205.297 468.434 195.88 471.215 191.074Z" fill="url(#paint15_linear_5_208)"/>
<path d="M117.049 419.899L116.325 420.145C113.322 417.079 110.98 409.886 108.598 406.08C107.947 405.04 108.049 397.269 108.033 395.531L108.917 395.538C108.932 398.242 108.968 402.902 110.577 405.164C111.978 412.073 114.23 412.785 121.061 413.356C128.499 418.797 129.279 423.914 128.309 432.767C126.551 431.075 126.743 430.647 124.761 430.519C122.208 432.509 121.498 433.773 118.087 433.356L120.911 432.594C120.337 432.258 119.61 431.674 119.056 431.263L118.713 428.637C118.687 426.105 118.766 421.772 117.049 419.899Z" fill="#021D4B"/>
<path d="M117.049 419.899L115.458 416.808L115.987 415.958C122.29 416.471 123.021 427.88 120.911 432.594C120.337 432.258 119.61 431.674 119.056 431.263L118.713 428.637C118.687 426.105 118.766 421.772 117.049 419.899Z" fill="#3A88B9"/>
<path d="M478.498 315.216C481.324 313.758 481.755 313.147 484.852 314.062C483.429 319.035 470.973 326.678 473.856 334.097C476.362 337.009 482.264 336.745 484.797 334.01C486.936 331.7 488.781 328.44 490.448 325.747C489.126 330.69 487.547 336.587 482.707 339.339C480.474 340.623 477.818 340.951 475.34 340.248C474.313 339.945 473.301 339.591 472.308 339.189L470.154 342.31C469.471 344.122 469.365 344.35 468.025 345.74L467.173 345.473C465.948 340.633 469.768 339.232 469.579 332.194C469.996 325.816 473.773 319.38 478.498 315.216Z" fill="#4DA6D2"/>
<path d="M469.579 332.194C470.013 333.698 471.155 338.355 472.308 339.189L470.154 342.31C469.471 344.122 469.365 344.35 468.025 345.74L467.173 345.473C465.948 340.633 469.768 339.232 469.579 332.194Z" fill="#4DA6D2"/>
<path d="M427.081 357.486C422.828 351.713 420.017 343.259 416.533 336.971C415.216 334.592 413.327 335.703 412.115 331.811C412.297 331.536 413.508 329.6 413.374 329.314C408.123 318.009 403.647 306.31 397.658 295.372C395.708 291.812 385.34 283.17 387.342 279.367C389.655 280.803 389.5 283.943 391.092 285.235C404.181 295.853 407.204 313.425 415.279 327.586C416.025 328.894 417.877 330.475 419.018 332.01C417.643 335.284 417.716 334.023 418.75 337.262C420.36 342.304 428.435 352.589 427.081 357.486Z" fill="#3A88B9"/>
<path d="M223.262 222.657C227.761 220.565 236.105 218.545 241.137 217.112C248.454 215.057 255.687 212.713 262.819 210.086C265.085 209.255 272.033 206.075 273.476 206.464C274.651 208.003 274.35 209.239 274.229 211.155C273.876 211.106 268.582 210.227 268.93 210.079C255.048 215.984 240.464 219.169 226.276 223.737C225.824 228.556 226.081 239.166 224.227 242.399C223.492 242.887 222.684 243.468 221.899 243.848C222.695 241.741 223.649 238.811 222.901 236.696C220.501 237.154 217.815 240.081 215.755 241.873C218.207 238.047 220.727 234.838 223.501 231.244C223.516 228.444 223.017 225.435 223.262 222.657Z" fill="#4DA6D2"/>
<path d="M491.858 125.988L494.433 126.709C493.617 140.789 498.15 150.339 511.044 156.816L511.667 158.981C510.601 160.324 510.097 160.043 508.076 160.474C506.534 158.844 506.196 158.713 504.219 157.836C500.221 155.335 496.888 151.902 494.505 147.832C490.074 140.323 489.748 134.071 491.858 125.988Z" fill="#61CAED"/>
<path d="M108.917 395.538C110.456 387.554 114.147 376.765 120.402 371.257C124.85 367.341 127.237 367.598 132.571 367.931C123.772 372.23 118.814 376.74 116.38 386.644C113.724 391.756 111.551 399.446 110.577 405.164C108.968 402.902 108.932 398.242 108.917 395.538Z" fill="#012650"/>
<path d="M438.289 416.436C439.477 418.556 442.885 425.077 444.915 426.274C448.622 428.458 462.353 427.267 465.056 430.889C463.95 432.464 462.253 432.195 460.285 432.365C453.954 432.596 449.122 432.652 442.885 431.534C439.673 427.921 438.292 424.924 436.042 420.658C438.234 419.338 437.878 418.735 438.289 416.436Z" fill="#16467A"/>
<path d="M453.837 221.103C455.197 223.74 454.691 224.086 453.643 226.928C448.592 237.311 444.05 246.626 435.671 254.733C433.999 253.361 434.427 252.922 433.894 250.202C441.489 242.117 448.252 230.807 453.837 221.103Z" fill="#4DA6D2"/>
<path d="M454.967 260.178C457.697 260.259 457.478 259.834 459.404 261.155C459.637 261.887 459.935 262.824 460.299 263.966C467.003 270.376 490.464 283.289 493.163 291.256C492.878 295.447 496.518 303.705 493.87 307.373C492.405 306.194 491.585 294.142 490.187 289.158C483.41 282.107 463.538 270.079 455.616 262.653C455.357 261.665 455.141 260.84 454.967 260.178Z" fill="#4DA6D2"/>
<path d="M307.03 172.87C310.713 168.5 311.221 171.049 314.475 168.183C318.412 164.717 330.161 151.632 334.09 149.865C330.503 155.078 315.953 167.436 316.166 169.716C317.559 171.762 317.772 171.372 317.699 173.428C316.258 174.822 316.99 174.494 314.936 174.621C313.978 174.05 313.026 173.468 312.081 172.874C305.223 179.045 300.53 184.858 292.494 189.472L291.709 188.441C294.947 185.994 305.743 176.113 307.03 172.87Z" fill="#6AE8FC"/>
<path d="M528.719 169.311C528.863 168.049 528.06 167.682 527.071 166.216C529.604 167.866 531.326 167.772 534.374 168.023C538.441 172.505 540.456 177.663 545.202 179.252L545.71 179.426C546.077 179.551 546.447 179.665 546.821 179.767C546.229 181.825 545.94 181.574 546.588 183.357C548.27 184.36 550.535 184.233 552.537 184.314C538.519 187.428 535.759 178.512 528.719 169.311Z" fill="#4DA6D2"/>
<path d="M208.815 214.298C211.353 213.139 214.732 211.253 217.395 211.351C221.346 213.455 217.912 223.179 217.029 227.386C219.119 224.113 221.632 219.804 223.117 216.211C223.198 218.138 223.385 220.796 223.262 222.657C223.017 225.435 223.516 228.444 223.501 231.244C220.727 234.838 218.207 238.047 215.755 241.873C217.815 240.081 220.501 237.154 222.901 236.696C223.649 238.811 222.695 241.741 221.899 243.848C219.625 242.747 218.275 242.402 216.891 240.281C216.134 235.06 220.464 235.48 222.032 231.072C220.713 228.016 215.627 228.223 215.855 225.247C216.065 222.51 219.143 214.922 217.601 212.139C214.774 213.246 211.944 214.531 208.967 215.172L208.815 214.298Z" fill="#16467A"/>
<path d="M505.695 74.6613C508.251 75.6593 516.071 86.3793 516.665 89.2573L516.576 89.6983L516.007 89.7593C512.222 85.8203 508.05 80.2873 505.36 75.5283L505.695 74.6613Z" fill="#3A88B9"/>
<path d="M538.606 115.002C544.864 114.99 554.663 118.326 556.972 124.697C557.789 126.95 559.852 131.882 559.669 134.211C557.543 132.16 556.503 130.217 554.984 127.723C542.333 123.15 546.93 119.702 538.606 115.002Z" fill="#6AE8FC"/>
<path d="M511.044 156.816C518.734 159.836 528.035 162.825 534.374 168.023C531.326 167.772 529.604 167.866 527.071 166.216C528.06 167.682 528.863 168.049 528.719 169.311C524.205 166.889 523.8 166.554 518.86 165.011C513.771 162.304 512.335 165.709 508.076 160.474C510.097 160.043 510.601 160.324 511.667 158.981L511.044 156.816Z" fill="#3A88B9"/>
<path d="M174.654 270.879L176.028 273.65L174.178 274.364C173.178 277.419 175.115 286.842 173.834 291.746C173.774 289.567 173.985 287.618 172.686 285.921L173.495 289.778C171.882 284.619 169.931 279.468 164.206 283.679C164.199 275.454 167.761 274.421 174.654 270.879Z" fill="#012650"/>
<path d="M407.429 362.266C401.932 355.062 396.49 344.864 391.28 337.101C388.023 332.248 381.344 323.901 379.173 319.198C389.856 328.426 399.886 346.186 407.116 358.709L407.429 362.266Z" fill="#2D6598"/>
<path d="M412.751 258.752C412.974 253.895 415.76 250.733 416.766 246.778C417.965 241.496 417.517 235.069 419.679 230.118C420.427 228.405 420.543 226.85 421.804 225.898C421.952 228.694 420.658 232.025 421.327 235.032L421.933 235.268C424.259 228.594 424.191 223.211 426.672 216.383C425.756 229.423 419.953 248.139 412.751 258.752Z" fill="#2375A4"/>
<path d="M173.834 291.746C175.115 286.842 173.178 277.419 174.178 274.364L176.028 273.65C177.247 275.718 176.234 290.314 175.996 293.347C174.371 294.879 169.849 298.808 169.076 300.524C170.323 302.798 170.535 302.322 170.192 304.422C168.318 305.959 169.154 305.688 167.035 305.752L164.982 304.552C164.15 299.747 171.3 295.873 173.834 291.746Z" fill="#2D6598"/>
<path d="M542.709 90.0773C550.545 96.2323 556.919 100.958 562.833 109.183C557.228 107.909 541.763 96.8953 542.709 90.0773Z" fill="#2375A4"/>
<path d="M225.782 296.704C228.873 285.557 229.522 275.029 231.973 263.948C232.754 273.501 231.97 289.669 228.499 298.577C227.458 297.079 227.742 297.535 225.782 296.704Z" fill="#3A88B9"/>
<path d="M487.284 343.639C490.479 339.765 496.951 314.605 502.344 305.548C501.656 310.947 500.429 318.279 498.314 323.304C497.222 325.9 495.942 325.018 494.816 328.582C493.516 332.492 490.878 341.984 488.51 344.774L487.284 343.639Z" fill="#2D6598"/>
<path d="M546.821 179.767C556.243 180.787 557.893 172.763 562.867 175.596C560.038 180.871 558.439 182.984 552.537 184.314C550.535 184.233 548.27 184.36 546.588 183.357C545.94 181.574 546.229 181.825 546.821 179.767Z" fill="#61CAED"/>
<path d="M318.546 286.2C321.537 284.895 322.071 286.804 322.878 286.458C326.412 284.943 324.593 281.671 330.245 282.428C332.378 283.9 331.69 283.1 332.802 285.509C332.595 287.86 332.927 286.965 331.508 288.891C327.553 291.227 326.355 288.008 319.781 289.756C318.199 287.896 318.562 288.826 318.546 286.2Z" fill="#3A88B9"/>
<path d="M433.894 250.202C434.427 252.922 433.999 253.361 435.671 254.733C432.43 259.097 424.871 264.954 419.768 267.417C424.865 259.038 426.756 257.196 433.894 250.202Z" fill="url(#paint16_linear_5_208)"/>
<path d="M493.791 81.2923C497.276 79.4253 497.605 80.4074 500.267 76.8214C497.42 86.8443 497.923 92.5624 500.612 102.563C498.318 99.0684 497.93 98.4363 496.296 94.8383C494.667 91.2523 494.564 82.4633 493.791 81.2923Z" fill="#61CAED"/>
<path d="M554.566 140.62C548.982 136.793 543.306 133.206 537.572 129.661C535.442 128.344 526.739 119.017 526.937 116.875L529.161 117.59C531.728 120.851 533.606 123.329 536.586 126.246C539.783 129.375 554.251 136.827 555.151 139.841L554.566 140.62Z" fill="#3A88B9"/>
<path d="M480.908 304.179C482.542 300.055 483.178 298.84 485.864 295.139C485.374 299.652 483.651 310.282 484.852 314.062C481.755 313.147 481.324 313.758 478.498 315.216C480.134 310.948 480.317 308.645 480.908 304.179Z" fill="#3A88B9"/>
<path d="M535.116 93.0853C536.978 93.6673 537.335 93.8393 538.377 95.3873C541.574 100.138 558.006 108.151 558.626 113.789L558.014 114.318C557.177 113.752 556.692 113.541 556.064 112.77C550.866 104.049 535.867 101.545 535.116 93.0853Z" fill="#4DA6D2"/>
<path d="M565.243 130.766C563.679 127.428 561.456 123.78 562.446 120.176C563.431 120.759 564.826 125.265 565.435 126.787C567.569 132.129 571.674 139.316 575.869 143.215L576.175 144.578C575.562 145.226 575.135 145.751 574.378 146.235L571.019 141.531C569.62 138.457 566.937 133.86 565.243 130.766Z" fill="#4DA6D2"/>
<path d="M318.546 286.2C318.562 288.826 318.199 287.896 319.781 289.756C315.654 290.591 308.38 290.941 303.967 291.197C300.102 290.261 300.305 290.082 298.487 287.135C306.345 289.194 310.541 289.06 318.546 286.2Z" fill="#2375A4"/>
<path d="M349.433 213.013C352.511 218.57 354.969 228.701 356.066 234.967C354.296 235.404 354.112 235.648 352.83 236.971C352.106 229.214 350.346 220.988 349.433 213.013Z" fill="#3A88B9"/>
<path d="M272.358 290.219C281.915 287.743 291.685 290.704 298.487 287.135C300.305 290.082 300.102 290.261 303.967 291.197C296.175 291.412 283.192 289.262 276.882 291.039L272.358 290.219Z" fill="#16467A"/>
<path d="M553.532 171.207C550.146 170.023 542.195 165.677 541.388 162.011C544.388 160.938 550.312 166.759 553.72 167.703C555.705 168.252 557.509 168.286 559.531 168.361C557.508 168.637 554.915 168.527 553.718 169.502L553.532 171.207Z" fill="#3A88B9"/>
<path d="M451.666 258.249C452.743 255.863 452.086 256.63 454.06 255.153C457.452 254.407 466.655 261.049 469.174 263.371C468.949 264.364 468.777 264.475 468.195 265.293L466.969 265.127C464.872 262.942 462.509 261.029 459.936 259.433C456.463 257.282 455.446 257.338 451.666 258.249Z" fill="#3A88B9"/>
<path d="M530.402 116.038C524.672 112.997 520.159 107.993 511.687 106.164L511.112 106.044L511.179 105.666L512.136 105.474C518.197 107.393 527.546 110.328 532.53 113.907L530.402 116.038Z" fill="#3A88B9"/>
<path d="M423.844 105.517C421.365 109.181 415.737 114.452 412.134 117.032C412.309 114.889 420.69 106.259 422.668 103.433L423.003 102.947L423.844 105.517Z" fill="#61CAED"/>
<path d="M106.505 428.023C105.944 421.608 104.476 422.203 102.698 416.76L103.101 416.138C106.651 417.547 107.201 418.888 109.082 422.09C108.816 424.116 108.709 426.495 107.62 428.168C107.093 428.151 106.825 428.242 106.505 428.023Z" fill="#3A88B9"/>
<path d="M336.413 154.789L337.732 155.401L337.993 156.83C335.787 159.774 333.704 165.798 330.738 169.512C330.297 166.74 334.973 157.788 336.413 154.789Z" fill="#61CAED"/>
<path d="M272.358 290.219L276.882 291.039L267.351 293.613L266.701 291.377C268.576 291.069 270.496 290.62 272.358 290.219Z" fill="#3A88B9"/>
<path d="M461.779 87.5133L464.006 86.9343C466.237 87.2723 467.048 86.9683 468.348 88.3103L468.051 89.3483C466.282 90.2263 466.027 90.2373 464.044 90.2223C462.225 89.1803 462.854 89.7503 461.779 87.5133Z" fill="#3A88B9"/>
<path d="M497.79 115.9C496.564 119.412 495.156 123.078 494.433 126.709L491.858 125.988C493.568 121.639 494.973 119.608 497.79 115.9Z" fill="#61CAED"/>
<path d="M481.707 89.4693C482.786 90.8463 483.913 92.1373 485.054 93.4603C483.615 96.3573 482.192 98.6693 480.517 101.412L473.626 103.1L472.773 102.132C476.128 98.9323 479.942 102.232 482.388 91.8983C470.359 92.8833 449.314 98.6083 439.459 106.394C437.057 108.292 437.94 111.881 432.954 112.037C431.363 110.736 428.999 107.916 430.054 105.683C431.76 101.568 436.479 104.047 437.016 103.811C452.154 97.1623 465.338 92.4383 481.707 89.4693Z" fill="#4DA6D2"/>
<path d="M434.923 122.026C446.64 110.079 446.696 110.205 462.434 105.469C462.324 106.239 462.471 107.024 462.854 107.701C440.217 113.26 440.55 121.318 424.943 135.471C420.258 135.585 414.982 135.918 410.455 134.953L410.081 134.426C414.848 133.156 418.794 133.423 423.71 133.368C427.686 129.744 431.231 125.925 434.923 122.026Z" fill="#61CAED"/>
<path d="M462.434 105.469C462.71 103.542 464.497 102.203 466.424 102.482C468.35 102.76 469.686 104.549 469.406 106.476C469.125 108.403 467.335 109.737 465.409 109.455C464.332 109.297 463.389 108.649 462.854 107.701C462.471 107.024 462.324 106.239 462.434 105.469Z" fill="#6AE8FC"/>
<path d="M385.718 140.886L390.299 139.826C389.879 140.695 389.297 141.742 389.09 142.646C388.278 147.771 388.516 156.729 388.603 162.206C394.737 168.498 407.848 177.97 407.283 185.823C407.02 189.49 406.854 191.614 407.978 195.341L407.227 195.744L405.384 194.932L405.114 185.652L404.491 184.597C395.261 181.013 396.486 177.291 388.971 173.617C387.852 173.07 388.542 173.761 387.737 172.433C388.695 170.227 388.575 170.812 391.013 169.334L390.926 168.401C389.286 166.827 389.114 166.518 388.015 164.564C384.397 158.569 388.042 147.891 385.718 140.886Z" fill="#61CAED"/>
<path d="M397.355 159.024C399.508 157.582 398.776 157.631 401.077 157.656C402.652 158.703 411.462 169.923 412.398 171.734L411.739 172.735C410.208 172.738 409.928 171.512 408.877 170.177C406.752 167.476 404.404 165.388 401.856 163.103C399.655 163.159 398.262 160.593 397.355 159.024Z" fill="#61CAED"/>
<path d="M369.997 285.772C369.822 282.475 369.348 275.957 369.757 272.93C370.365 268.446 372.711 262.183 373.162 257.696C373.811 251.242 373.212 243.355 373.234 236.798C373.241 234.581 370.286 232.93 369.942 229.738C370.706 226.548 373.133 224.885 376.334 225.936C379.162 229.02 379.153 231.298 376.401 234.329L375.959 234.81C375.399 243.372 376.447 252.094 375.299 260.52C374.757 264.502 372.003 267.706 371.29 272.381C371.404 274.097 371.537 274.826 371.92 276.506C371.666 279.892 371.915 282.107 372.206 285.448C378.698 293.151 387.957 298.272 394.325 306.063C399.506 312.403 426.311 366.41 428.281 374.343C424.245 370.005 420.451 361.288 417.518 355.753C409.628 340.862 402.011 324.431 393.982 309.78C390.004 302.522 375.953 294.391 369.997 285.772Z" fill="#4DA6D2"/>
<path d="M290.557 258.075C300.594 255.073 314.372 251.449 323.899 247.395C328.433 245.466 336.445 232.057 341.439 228.614L341.989 229.208C341.052 231.015 327.939 247.586 325.905 248.518C317.149 252.532 299.955 258.096 290.564 260.509C282.966 255.863 275.4 251.162 267.869 246.407C255.434 250.364 242.148 254.041 229.963 258.129C229.596 257.114 228.861 256.154 228.247 255.228C233.666 255.391 260.306 245.567 267.81 243.671C275.435 248.406 283.017 253.208 290.557 258.075Z" fill="#3A88B9"/>
<path d="M344.779 240.542C345.442 241.851 345.251 241.397 345.011 243.112C341.707 246.789 338.227 252.992 334.433 255.895C325.34 262.854 302.49 269.589 290.935 273.22C284.28 267.623 273.971 260.167 266.192 256.383C261.469 257.657 257.727 258.704 253.403 261.089C250.549 262.663 249.648 263.933 246.314 263.933C244.991 261.721 244.321 260.402 245.366 257.981C247.745 256.441 250.823 258.116 253.486 257.458C257.757 256.403 262.192 255.078 266.428 253.896C274.101 258.121 284.095 265.118 291.518 270.102C301.717 267.543 314.076 262.63 324.178 259.447C331.219 257.229 341.777 247.43 344.779 240.542Z" fill="#2D6598"/>
<path d="M191.567 263.435C197.31 257.158 209.482 245.063 216.87 240.877C213.099 247.408 200.767 258.236 194.85 264.78C194.484 277.971 194.876 290.925 194.582 303.9C188.2 311.978 180.538 319.766 173.67 327.546L172.363 326.053C178.731 318.536 185.22 311.123 191.827 303.816C191.822 290.623 192.01 276.566 191.567 263.435Z" fill="#4DA6D2"/>
<path d="M243.89 231.04C256.308 226.366 280.765 219.266 291.768 212.635C299.596 207.917 312.216 190.272 319.619 183.8C320.827 182.506 317.561 179.543 322.263 176.246C325.438 175.838 327.997 177.331 328.417 180.639C326.696 185.238 322.718 184.377 318.064 188.559C310.567 195.295 296.819 213.844 288.35 217.138C273.826 222.789 257.724 228.467 242.949 233.774C243.068 233.007 243.589 231.817 243.89 231.04Z" fill="#61CAED"/>
<path d="M110.618 362.246C109.103 365.703 98.2707 396.956 97.8837 397.319L97.4967 396.72C98.0807 393.017 109.011 356.969 110.013 356.002C124.124 358.574 140.243 341.124 152.445 335.071C160.748 330.952 165.027 332.904 172.363 326.053L173.67 327.546C167.102 335.554 159.681 332.857 152.685 337.354C139.013 346.144 125.41 355.336 110.618 362.246Z" fill="#2D6598"/>
<path d="M357.699 213.472C368.487 214.767 365.534 242.344 365.968 249.752C366.394 257.042 369.603 259.634 365.127 266.785C360.245 274.586 360.622 280.905 362.413 289.427C367.857 295.427 373.633 293.117 373.401 300.619C370.967 302.045 369.84 302.807 367.406 301.101C365.068 294.994 360.568 291.343 359.262 285.106C357.35 275.971 360.732 269.336 365.34 262.087C363.61 249.836 364.854 236.942 363.644 224.601C363.177 219.829 358.171 217.51 357.699 213.472Z" fill="#2D6598"/>
<path d="M341.084 265.294C342.79 265.991 342.271 265.513 343.11 267.03C342.282 268.605 334.791 271.826 332.941 272.913C315.384 283.229 298.217 284.547 278.287 284.812C265.21 284.985 251.511 282.925 239.434 289.839C237.971 289.036 238.459 289.476 237.695 287.727L238.442 286.634C245.098 285.95 246.819 282.862 252.181 282.507C265.743 281.61 280.835 283.958 294.186 282.9C304.712 282.065 334.711 273.258 341.084 265.294Z" fill="#2D6598"/>
<path d="M355.991 173.649L359.389 173.061C357.826 175.329 358.543 193.329 358.625 197.576C367.66 205.977 376.079 212.085 385.064 221.421C385.382 225.267 384.937 229.789 385.044 233.715C385.193 239.156 385.021 237.683 388.119 241.499C388.372 243.361 388.556 243.872 387.748 245.533C383.978 248.776 375.267 245.405 382.955 238.385C383.155 232.549 383.064 228.458 382.726 222.62C379.189 217.914 361.824 202.705 356.533 197.919C356.364 191.752 356.658 179.078 355.991 173.649Z" fill="#2D6598"/>
<path d="M346.539 156.454L349.591 156.839C349.849 157.152 350.107 157.465 350.365 157.779C349.892 167.311 349.91 184.748 349.654 193.415C343.875 201.65 330.806 211.979 324.757 220.729C324.323 221.357 324.957 223.496 323.881 225.791C322.256 227.259 321.588 227.305 319.525 227.788C317.833 226.257 316.432 225.258 316.045 223.018C317.203 217.67 322.552 219.076 324.657 216.902C332.041 209.272 341.344 199.892 348.057 191.913C348.11 182.003 348.381 165.727 346.539 156.454Z" fill="#61CAED"/>
<path d="M211.338 271.954C212.577 271.98 212.989 272.103 214.047 271.442C212.175 280.195 215.785 305.401 212.561 311.938C208.404 320.369 180.767 352.562 171.444 352.279L171.163 351.479C173.471 348.766 181.451 345.515 184.367 342.454C193.181 333.205 203.2 321.242 211.184 311.247C212.005 300.017 211.437 283.519 211.338 271.954Z" fill="#4DA6D2"/>
<path d="M364.023 147.055C366.693 159.533 364.925 175.812 365.563 189.302C373.576 199.761 387.283 208.213 395.705 217.842C395.49 224.909 395.265 225.718 393.691 232.733L393.395 218.162C384.422 208.466 374.016 202.27 363.061 189.919C363.082 175.384 361.265 161 364.023 147.055Z" fill="#3A88B9"/>
<path d="M206.142 231.127C206.906 233.763 206.321 233.294 208.225 234.349C205.293 234.915 186.553 255.099 183.941 258.609C183.824 267.659 184.31 277.784 183.867 286.604C185.491 287.434 188.506 288.671 188.697 290.631C188.901 292.733 189.056 298.964 187.834 300.611L186.712 300.539C184.613 297.552 187.631 294.843 185.312 293.532C183.779 293.58 182.08 293.751 180.631 293.365C179.46 287.981 181.609 288.458 181.778 281.899C181.992 273.578 181.888 265.373 182.077 257.061C185.768 252.397 205.771 233.718 206.142 231.127Z" fill="#4DA6D2"/>
<path d="M183.867 286.604C185.491 287.434 188.506 288.671 188.697 290.631C188.901 292.733 189.056 298.964 187.834 300.611L186.712 300.539C184.613 297.552 187.631 294.843 185.312 293.532C183.779 293.58 182.08 293.751 180.631 293.365C182.557 293.011 183.796 292.996 185.1 291.505C185.625 289.619 184.738 288.352 183.867 286.604Z" fill="#16467A"/>
<path d="M311.694 183.552L312.218 184.175C311.77 186.388 290.862 208.407 288.077 209.53C273.272 215.5 251.272 225.19 235.717 227.825L235.252 226.943C236.51 224.352 284.95 212.339 290.975 204.245C293.349 201.056 308.863 185.955 311.694 183.552Z" fill="#4DA6D2"/>
<path d="M385.653 178.232C386.576 178.71 387.521 179.627 388.327 180.335C388.766 182.24 389.112 183.986 390.573 185.399C396.779 191.401 402.75 197.714 409.393 203.241C409.344 209.179 410.564 234.409 407.401 238.217C406.588 235.762 406.563 209.223 406.465 204.512C403.712 201.747 383.186 182.589 382.955 181.855C383.566 179.743 383.854 179.991 385.653 178.232Z" fill="#4DA6D2"/>
<path d="M488.394 109.437C489.515 109.457 489.464 109.441 490.516 109.822L490.082 110.432C479.382 112.402 482.781 120.637 475.543 126.757C474.133 127.949 466.245 129.789 463.08 131.142C448.14 137.529 439.676 148.249 429.135 160.049C428.086 160.508 428.648 160.429 427.388 160.067C427.649 154.24 454.557 130.634 462.703 128.886C466.444 128.084 471.778 125.717 475.625 124.533C480.619 117.245 478.369 113.591 488.394 109.437Z" fill="#3A88B9"/>
<path d="M162.864 345.463C164.439 343.235 163.625 343.818 165.878 342.88C168.168 343.46 167.375 342.94 168.83 344.872C168.929 347.214 168.983 347.598 167.168 349.447C153.111 349.154 145.126 348.957 134.604 357.795C132.568 359.506 125.842 360.873 122.76 363.51C120.172 365.724 114.85 369.804 111.711 369.724L111.543 369.017C117.73 362.19 139.318 352.157 148.333 348.58C152.576 346.896 158.696 347.986 162.864 345.463Z" fill="#16467A"/>
<path d="M162.864 345.463C164.439 343.235 163.625 343.818 165.878 342.88C168.168 343.46 167.375 342.94 168.83 344.872C168.929 347.214 168.983 347.598 167.168 349.447C166.872 347.474 167.158 347.107 165.965 345.827L163.882 346.646L162.864 345.463Z" fill="#61CAED"/>
<path d="M438.229 258.809C439.972 260.513 442.183 263.351 443.795 265.296C445.726 265.119 447.178 264.896 449.117 265.146L449.327 265.723C458.881 273.077 474.815 280.754 481.611 289.221C477.582 287.007 455.291 271.776 452.947 272.126C452.72 273.56 452.77 273.522 452.038 274.752C449.769 275.314 449.232 275.55 446.937 274.989C445.503 273.833 439.32 261.165 438.229 258.809Z" fill="#3A88B9"/>
<path d="M443.795 265.296C445.726 265.119 447.178 264.896 449.117 265.146L449.327 265.723C448.204 266.363 448.27 266.37 447.69 267.452C448.714 268.387 449.371 268.865 450.5 269.676C450.505 271.637 450.713 270.858 449.527 272.627L448.113 272.802C446.24 271.628 444.792 267.572 443.795 265.296Z" fill="#16467A"/>
<path d="M370.678 159.796C371.682 160.589 373.042 160.761 374.211 160.242C373.752 163.2 374.185 180.553 374.231 184.593C381.219 191.265 389.307 198.95 396.772 204.932L396.78 206.097C395.464 207.145 395.154 207.105 393.45 207.17C393.286 206.39 392.774 204.347 392.249 203.847C385.728 197.639 378.035 191.503 371.696 185.221C371.692 181.035 372.106 162.22 370.678 159.796Z" fill="#3A88B9"/>
<path d="M294.27 246.195C300.653 244.64 318.457 239.595 322.654 235.358C326.998 230.972 332.647 223.932 337.552 219.273C337.689 220.688 337.826 221.203 336.818 222.491C319.63 244.434 315.714 240.021 294.657 248.81C291.942 247.462 284.338 242.668 281.806 240.675L283.135 239.152C286.871 241.462 290.583 243.81 294.27 246.195Z" fill="#2D6598"/>
<path d="M200.978 280.798C203.303 280.852 204.085 280.607 205.782 281.727C202.602 316.154 207.979 304.842 185.354 329.926L184.879 330.228L184.111 329.961C184.843 325.511 198.495 313.596 202.032 307.283C202.367 301.279 202.345 294.548 201.994 288.566C201.762 284.624 200.787 285.079 200.978 280.798Z" fill="#2D6598"/>
<path d="M481.15 135.14L481.195 135.145C479.701 138.896 447.732 145.801 437.557 180.472C434.717 175.154 441.994 164.632 444.802 160.096C452.648 147.417 467.435 139.799 481.15 135.14Z" fill="#3A88B9"/>
<path d="M382.529 125.053C387.799 124.382 398.28 124.332 403.01 126.803C397.917 130.46 383.651 120.489 364.152 135.299C359.195 139.486 355.614 144.379 350.184 148.825C356.599 136.287 368.375 126.788 382.529 125.053Z" fill="#61CAED"/>
<path d="M511.956 112.87C521.795 112.986 511.243 127.619 516.138 134.779C520.664 141.4 545.171 136.132 542.278 146.174C537.247 138.052 523.433 140.844 515.357 139.898C516.074 139.013 516.26 138.861 516.659 137.749L513.02 133.652C512.808 125.804 514.108 120.623 511.956 112.87Z" fill="#2D6598"/>
<path d="M481.665 158.535C483.336 158.551 482.76 158.336 484.134 159.15C482.94 161.116 474.161 164.136 471.443 166.293C461.389 174.269 457.205 186.35 452.932 197.76L452.555 198.297L452.571 197.732L452.039 197.933L451.516 197.182C451.512 195.257 452.069 193.631 452.782 191.865C459.946 174.138 464.158 166.551 481.665 158.535Z" fill="#2D6598"/>
<path d="M177.764 300.126L181.223 301.924L181.384 302.856C176.897 307.428 168.211 319.426 164.661 322.008C153.621 330.036 149.861 327.02 139.733 338.399C139.144 338.978 138.57 339.054 137.773 339.29L137.597 338.503C141.959 328.336 156.419 328.062 163.73 320.134C168.415 315.054 177.515 307.306 177.764 300.126Z" fill="#16467A"/>
<path d="M443.32 194.554L444.231 195.017C445.939 198.89 442.857 225.747 442.331 231.106C440.985 232.97 441.15 232.464 438.55 233.321C436.504 231.759 436.132 231.028 435.984 228.626C436.837 226.48 438.657 225.555 440.59 224.237C441.989 214.338 441.887 204.08 443.32 194.554Z" fill="#3A88B9"/>
<path d="M520.695 121.278L522.766 121.73C524.611 123.957 521.145 128.485 523.948 130.244C537.616 138.818 552.47 136.547 560.826 152.708C558.796 153.052 559.337 153.283 557.975 152.423L557.801 151.831C553.278 136.77 512.01 137.23 520.695 121.278Z" fill="#2D6598"/>
<path d="M502.749 119.944C504.099 120.046 504.506 120.2 505.816 120.59C508.024 123.269 505.298 127.862 505.551 134.437C514.07 150.778 524.693 142.343 533.902 147.172C532.586 147.802 530.616 147.29 528.995 147.35C516.489 147.811 510.427 146.718 503.71 135.843C503.633 130.814 501.954 122.509 502.749 119.944Z" fill="#3A88B9"/>
<path d="M265.619 262.045C270.232 264.009 285.666 276.111 290.917 280.083C281.676 276.697 274.58 270.674 266.609 264.847C261.831 262.754 246.716 271.236 241.205 272.041C240.075 272.206 239.875 271.678 238.993 270.854L239.369 270.215C248.52 269.159 256.996 263.563 265.619 262.045Z" fill="#16467A"/>
<path d="M448.795 119.909C451.343 119.717 456.591 119.118 458.693 120.467C457.775 121.719 449.57 121.577 447.202 123.435C440.021 129.07 432.971 137.391 426.866 144.054C424.81 146.428 424.199 147.036 421.695 148.903L421.079 148.786C424.083 142.426 442.612 123.603 448.795 119.909Z" fill="#4DA6D2"/>
<path d="M475.649 149.816C476.428 150.141 476.068 149.89 476.534 150.865C460.308 160.254 453.991 170.021 444.809 185.105L444.316 185.167L443.727 184.617C443.817 184.136 443.931 183.66 444.071 183.191C447.871 170.205 463.592 155.979 475.649 149.816Z" fill="#2D6598"/>
<path d="M428.942 269.947C431.922 269.84 443.905 277.937 447.891 279.371C453.572 281.416 459.397 283.08 465.174 284.84C466.55 286.295 466.152 285.779 466.147 288.302C454.565 285.691 439.396 277.472 429.197 271.357L428.942 269.947Z" fill="#2D6598"/>
<path d="M394.282 139.162C403.282 138.501 421.414 163.218 424.687 171.305C420.833 169.036 412.727 156.189 409.135 151.849C404.832 146.649 397.348 142.893 394.282 139.162Z" fill="#3A88B9"/>
<path d="M395.705 217.842C396.876 224.02 396.32 255.268 395.008 261.185C394.168 256.609 392.82 236.741 393.691 232.733C395.265 225.718 395.49 224.909 395.705 217.842Z" fill="#2D6598"/>
<path d="M432.554 378.292L434.559 378.627C435.611 379.804 435.086 379.852 435.658 381.004C442.108 394.008 444.962 400.469 458.114 407.362C454.562 407.292 453.15 406.976 450.045 405.199C443.748 401.597 433.823 384.785 432.554 378.292Z" fill="#2D6598"/>
<path d="M112.213 374.176C112.583 376.889 102.588 397.525 103.103 402.506C103.206 403.505 101.938 411.644 101.609 412.733C99.6627 402.374 104.692 381.386 112.213 374.176Z" fill="#16467A"/>
<path d="M383.614 118.238C388.392 117.666 397.573 117.78 402.293 118.624L402.3 119.121C397.828 120.137 393.093 120.026 388.498 120.099C384.113 120.326 371.37 122.874 369.533 121.863L370.039 121.158C375.402 118.892 377.952 118.733 383.614 118.238Z" fill="#61CAED"/>
<path d="M420.602 123.528C423.696 120.783 429.952 113.862 432.905 112.334C432.801 114.84 431.032 116.506 429.244 118.279C426.893 120.636 423.686 123.269 421.128 125.488C416.129 125.645 413.437 125.774 408.514 125.089L407.938 123.997L407.868 124.984L407.377 124.073L407.535 124.919C407.341 124.653 407.147 124.386 406.953 124.119L406.471 124.193C410.912 123.029 415.945 123.451 420.602 123.528Z" fill="#4DA6D2"/>
<path d="M211.338 271.954C208.935 269.186 206.879 266.95 209.978 263.787C213.238 262.713 215.737 263.278 217.115 266.549C217.024 268.805 215.949 270.283 214.047 271.442C212.989 272.103 212.577 271.98 211.338 271.954Z" fill="#6AE8FC"/>
<path d="M458.755 413.264C469.132 412.202 472.761 422.142 470.389 430.827L469.861 430.9C468.227 429.639 468.228 424.618 467.549 421.852C466.435 417.307 462.559 415.756 458.755 413.264Z" fill="#4DA6D2"/>
<path d="M479.876 144.454C481.924 143.719 484.185 144.748 484.977 146.775C485.768 148.803 484.801 151.093 482.797 151.939C481.45 152.508 479.902 152.3 478.752 151.397C477.603 150.494 477.035 149.037 477.269 147.594C477.502 146.151 478.501 144.949 479.876 144.454Z" fill="#2D6598"/>
<path d="M371.29 272.381C377.83 273.805 381.375 263.985 386.277 262.127L387.27 262.533C386.417 265.752 375.134 275.756 371.92 276.506C371.537 274.826 371.404 274.097 371.29 272.381Z" fill="#16467A"/>
<path d="M157.224 357.09C157.74 357.201 158.516 357.623 159.027 357.867L158.729 358.218C158.634 358.887 158.687 358.583 158.124 359.225C153.102 360.098 139.974 359.73 134.277 359.666L133.528 359.54C140.049 356.355 153.817 358.699 157.224 357.09Z" fill="#16467A"/>
<path d="M432.867 176.506C437.163 178.724 438.929 195.248 438.485 200.004C436.993 198.493 433.204 179.664 432.867 176.506Z" fill="#2D6598"/>
<path d="M385.718 140.886C383.775 138.463 383.488 138.112 384.24 135.098C386.87 132.715 388.452 132.596 390.873 135.262C391.322 138.055 391.301 137.073 390.299 139.826L385.718 140.886Z" fill="#6AE8FC"/>
<path d="M427.052 391.205C434.387 391.376 440.654 401.446 442.726 407.741C440.155 406.932 434.365 397.019 431.619 394.985C430.156 393.902 428.299 392.491 427.052 391.205Z" fill="#2D6598"/>
<path d="M206.142 231.127C206.783 228.423 206.247 229.37 208.063 227.433C211.133 226.765 213.044 228.155 213.391 231.386C212.542 233.488 213.108 232.753 211.132 234.104C210.231 234.189 209.107 234.326 208.225 234.349C206.321 233.294 206.906 233.763 206.142 231.127Z" fill="#6AE8FC"/>
<path d="M370.678 159.796C369.465 158.837 369.039 157.186 369.637 155.759C370.235 154.332 371.711 153.479 373.246 153.672C374.78 153.866 375.998 155.059 376.223 156.59C376.448 158.121 375.625 159.615 374.211 160.242C373.042 160.761 371.682 160.589 370.678 159.796Z" fill="#6AE8FC"/>
<path d="M276.618 237.711C275.342 238.519 273.687 238.393 272.548 237.401C271.409 236.409 271.057 234.786 271.681 233.41C272.306 232.035 273.759 231.233 275.256 231.438C276.752 231.643 277.936 232.807 278.167 234.3C278.375 235.644 277.767 236.984 276.618 237.711Z" fill="#6AE8FC"/>
<path d="M242.949 233.774L242.015 235.447C240.101 236.657 240.941 236.461 238.845 236.358C237.053 234.714 237.59 235.552 236.91 233.09C237.539 230.886 237.015 231.605 238.825 230.346C241.1 229.989 241.718 230.322 243.89 231.04C243.589 231.817 243.068 233.007 242.949 233.774Z" fill="#6AE8FC"/>
<path d="M507.019 149.348C514.844 151.936 523.896 150.078 527.818 154.064C523.9 154.564 509.406 152.684 507.019 149.348Z" fill="#2D6598"/>
<path d="M229.963 258.129C228.439 259.531 227.798 260.357 225.716 260.697C223.647 260.062 224.344 260.572 223.111 258.764C223.126 256.464 222.869 257.35 224.078 255.402C226.426 254.515 225.602 254.715 228.247 255.228C228.861 256.154 229.596 257.114 229.963 258.129Z" fill="#6AE8FC"/>
<path d="M454.82 116.237C457.648 115.964 462.88 116.433 465.082 118.282L464.582 119.31C462.02 120.138 457.395 118.446 454.705 117.566L454.82 116.237Z" fill="#61CAED"/>
<path d="M355.991 173.649C355.103 171.161 354.926 171.773 355.429 169.476C357.196 168.254 356.331 168.494 358.814 168.822C360.565 170.305 360.135 169.526 360.479 171.715L359.389 173.061L355.991 173.649Z" fill="#4DA6D2"/>
<path d="M380.008 302.674L381.172 303.395C382.547 306.041 382.498 310.209 382.436 313.134C381.327 312.731 381.113 312.385 380.306 311.552C379.281 308.921 379.803 305.559 380.008 302.674Z" fill="#16467A"/>
<path d="M490.542 315.868C491.921 315.9 491.867 315.848 492.974 316.632C492.485 318.448 490.084 320.113 488.385 321.989L488.053 322.393L487.725 320.842C488.306 318.11 488.541 317.838 490.542 315.868Z" fill="#3A88B9"/>
<path d="M490.877 82.9493C490.765 85.7423 486.863 88.9283 484.772 90.9663L484.609 89.6593C486.131 86.7493 488.149 84.7273 490.877 82.9493Z" fill="#4DA6D2"/>
<path d="M278.167 234.3C279.11 236.804 280.735 237.607 283.135 239.152L281.806 240.675C279.722 239.098 279.003 238.795 276.618 237.711C277.767 236.984 278.375 235.644 278.167 234.3Z" fill="#4DA6D2"/>
<defs>
  <linearGradient id="paint0_linear_5_208" x1="271.122" y1="480.586" x2="403.681" y2="42.5018" gradientUnits="userSpaceOnUse">
    <animateTransform attributeName="gradientTransform" type="translate" values="-200 -200; 200 200; -200 -200" dur="6s" repeatCount="indefinite" />
    <stop stop-color="#02224C"/>
    <stop offset="1" stop-color="#014070"/>
  </linearGradient>

  <linearGradient id="paint1_linear_5_208" x1="54.1583" y1="332.491" x2="115.429" y2="212.678" gradientUnits="userSpaceOnUse">
    <animateTransform attributeName="gradientTransform" type="translate" values="0 150; 0 -150; 0 150" dur="4.5s" repeatCount="indefinite" />
    <stop stop-color="#021443"/>
    <stop offset="1" stop-color="#023969"/>
  </linearGradient>

  <linearGradient id="paint2_linear_5_208" x1="172.164" y1="322.77" x2="178.136" y2="140.943" gradientUnits="userSpaceOnUse">
    <animateTransform attributeName="gradientTransform" type="translate" values="0 -250; 0 250; 0 -250" dur="5s" repeatCount="indefinite" />
    <stop stop-color="#57CAF0">
       <animate attributeName="stop-color" values="#57CAF0; #A0E8FF; #57CAF0" dur="2.5s" repeatCount="indefinite" />
    </stop>
    <stop offset="1" stop-color="#8EFFFF">
       <animate attributeName="stop-color" values="#8EFFFF; #FFFFFF; #8EFFFF" dur="2.5s" repeatCount="indefinite" />
    </stop>
  </linearGradient>

  <linearGradient id="paint3_linear_5_208" x1="294.56" y1="417.222" x2="208.804" y2="355.806" gradientUnits="userSpaceOnUse">
    <animateTransform attributeName="gradientTransform" type="translate" values="-250 0; 250 0; -250 0" dur="7s" repeatCount="indefinite" />
    <stop stop-color="#22477D"/>
    <stop offset="1" stop-color="#336CAC"/>
  </linearGradient>

  <linearGradient id="paint4_linear_5_208" x1="235.828" y1="377.897" x2="264.264" y2="379.812" gradientUnits="userSpaceOnUse">
    <animateTransform attributeName="gradientTransform" type="translate" values="150 0; -150 0; 150 0" dur="4s" repeatCount="indefinite" />
    <stop stop-color="#011F48"/>
    <stop offset="1" stop-color="#073773"/>
  </linearGradient>

  <linearGradient id="paint5_linear_5_208" x1="430.01" y1="252.166" x2="461.12" y2="59.4371" gradientUnits="userSpaceOnUse">
    <animateTransform attributeName="gradientTransform" type="translate" values="0 250; 0 -250; 0 250" dur="6.5s" repeatCount="indefinite" />
    <stop stop-color="#62D0F0"/>
    <stop offset="1" stop-color="#84F5FF">
       <animate attributeName="stop-color" values="#84F5FF; #FFFFFF; #84F5FF" dur="3s" repeatCount="indefinite" />
    </stop>
  </linearGradient>

  <linearGradient id="paint6_linear_5_208" x1="468.62" y1="288.803" x2="404.011" y2="292.973" gradientUnits="userSpaceOnUse">
    <animateTransform attributeName="gradientTransform" type="translate" values="200 -100; -200 100; 200 -100" dur="5.5s" repeatCount="indefinite" />
    <stop stop-color="#40AFE3"/>
    <stop offset="1" stop-color="#75F0FF"/>
  </linearGradient>

  <linearGradient id="paint7_linear_5_208" x1="253.856" y1="293.504" x2="261.466" y2="347.334" gradientUnits="userSpaceOnUse">
    <animateTransform attributeName="gradientTransform" type="translate" values="0 -150; 0 150; 0 -150" dur="3.5s" repeatCount="indefinite" />
    <stop stop-color="#40ACE3">
       <animate attributeName="stop-color" values="#40ACE3; #A2E2FF; #40ACE3" dur="4s" repeatCount="indefinite" />
    </stop>
    <stop offset="1" stop-color="#78E7FF"/>
  </linearGradient>

  <linearGradient id="paint8_linear_5_208" x1="268.001" y1="206.605" x2="261.762" y2="190.108" gradientUnits="userSpaceOnUse">
    <animateTransform attributeName="gradientTransform" type="translate" values="-100 0; 100 0; -100 0" dur="3s" repeatCount="indefinite" />
    <stop stop-color="#003872"/>
    <stop offset="1" stop-color="#055B87"/>
  </linearGradient>

  <linearGradient id="paint9_linear_5_208" x1="136.823" y1="345.912" x2="108.309" y2="318.647" gradientUnits="userSpaceOnUse">
    <animateTransform attributeName="gradientTransform" type="translate" values="-150 -150; 150 150; -150 -150" dur="8s" repeatCount="indefinite" />
    <stop stop-color="#3E90C9"/>
    <stop offset="1" stop-color="#72E0FF"/>
  </linearGradient>

  <linearGradient id="paint10_linear_5_208" x1="448.058" y1="315.104" x2="500.734" y2="283.218" gradientUnits="userSpaceOnUse">
    <animateTransform attributeName="gradientTransform" type="translate" values="150 -150; -150 150; 150 -150" dur="7s" repeatCount="indefinite" />
    <stop stop-color="#399ED4"/>
    <stop offset="1" stop-color="#82F3FF">
       <animate attributeName="stop-color" values="#82F3FF; #FFFFFF; #82F3FF" dur="2s" repeatCount="indefinite" />
    </stop>
  </linearGradient>

  <linearGradient id="paint11_linear_5_208" x1="346.584" y1="290.481" x2="372.151" y2="285.953" gradientUnits="userSpaceOnUse">
    <animateTransform attributeName="gradientTransform" type="translate" values="-200 0; 200 0; -200 0" dur="4.5s" repeatCount="indefinite" />
    <stop stop-color="#63E0FF"/>
    <stop offset="1" stop-color="#4EA8E1"/>
  </linearGradient>

  <linearGradient id="paint12_linear_5_208" x1="402.599" y1="384.453" x2="414.395" y2="373.799" gradientUnits="userSpaceOnUse">
    <animateTransform attributeName="gradientTransform" type="translate" values="0 -200; 0 200; 0 -200" dur="9s" repeatCount="indefinite" />
    <stop stop-color="#2B65A2"/>
    <stop offset="1" stop-color="#3F82C7"/>
  </linearGradient>

  <linearGradient id="paint13_linear_5_208" x1="475.504" y1="174.83" x2="486.491" y2="185.415" gradientUnits="userSpaceOnUse">
    <animateTransform attributeName="gradientTransform" type="translate" values="-100 -100; 100 100; -100 -100" dur="4s" repeatCount="indefinite" />
    <stop stop-color="#469DD7"/>
    <stop offset="1" stop-color="#0862A3"/>
  </linearGradient>

  <linearGradient id="paint14_linear_5_208" x1="536.341" y1="109.204" x2="542.105" y2="100.927" gradientUnits="userSpaceOnUse">
    <animateTransform attributeName="gradientTransform" type="translate" values="0 150; 0 -150; 0 150" dur="6s" repeatCount="indefinite" />
    <stop stop-color="#002755"/>
    <stop offset="1" stop-color="#033E67"/>
  </linearGradient>

  <linearGradient id="paint15_linear_5_208" x1="466.179" y1="222.103" x2="458.908" y2="219.028" gradientUnits="userSpaceOnUse">
    <animateTransform attributeName="gradientTransform" type="translate" values="150 0; -150 0; 150 0" dur="5s" repeatCount="indefinite" />
    <stop stop-color="#70E7FF"/>
    <stop offset="1" stop-color="#3FA7D7"/>
  </linearGradient>

  <linearGradient id="paint16_linear_5_208" x1="423.517" y1="265.268" x2="432.946" y2="252.346" gradientUnits="userSpaceOnUse">
    <animateTransform attributeName="gradientTransform" type="translate" values="-150 0; 150 0; -150 0" dur="7.5s" repeatCount="indefinite" />
    <stop stop-color="#3286C2"/>
    <stop offset="1" stop-color="#47A7DD"/>
  </linearGradient>
</defs>
</svg>
